<svg xmlns="http://www.w3.org/2000/svg" width="512" height="512" viewBox="0 0 512 512">
  <defs>
    <style>
      .cls-1 {
        fill: #fff;
        fill-rule: evenodd;
      }
    </style>
  </defs>
  <path id="logo_01" class="cls-1" d="M434,306V424c0,22.246.188,60.554-3,67-2.589,1.713-5.008,4.877-8,6-6.127,2.3-16.3,1-24,1-10.6,0-56.515,2.494-60-4-8.727-8.133-5-35.237-5-60V306H306V424c0,22.246,1.475,49.4-3,67-2.589,1.712-5.007,4.876-8,6-6.126,2.3-16.3,1-24,1-19.549,0-42.983.948-58-3-2.219-3.42-5.78-6.59-7-11V114H178V439c0,17.908-.429,49.617-3,52-2.589,1.713-5.008,4.877-8,6-6.127,2.3-16.3,1-24,1-19.609,0-42.885.919-58-3-1.7-2.615-5.151-4.9-6-8-3.012-10.992-1-22.2-1-32V114c-19.207.191-53.27,0.431-57-3-3.961-2.318-6.648-4.243-7-11V78c0-19.321-.851-42.155,3-57,1.755-3.414,5-4.868,8-6,8.95-3.374,25.139-1,36-1H374c35.021,0,102.436-3.084,117,2,3.943,2.125,6.855,4.949,7,10,0.215,24.573,0,46,0,68V226c0.429,11.342.471,65.963-4,73C484.589,310.023,458.607,306.123,434,306ZM306,114v92h92V114H306Z"/>
</svg>
